<svg width="18" height="18" viewBox="0 0 18 18" fill="none" xmlns="http://www.w3.org/2000/svg">
<path fill-rule="evenodd" clip-rule="evenodd" d="M13.4515 6.46629H13.5042C14.3435 6.46629 15.1483 6.8004 15.7418 7.39513C16.3352 7.98986 16.6686 8.79648 16.6686 9.63755C16.6686 10.4786 16.3352 11.2852 15.7418 11.88C15.1483 12.4747 14.3435 12.8088 13.5042 12.8088V11.7517C14.0637 11.7517 14.6003 11.529 14.9959 11.1325C15.3916 10.736 15.6138 10.1983 15.6138 9.63755C15.6138 9.07683 15.3916 8.53909 14.9959 8.1426C14.6003 7.74612 14.0637 7.52338 13.5042 7.52338H12.538L12.4072 6.61745C12.328 6.04917 12.0656 5.52242 11.6599 5.11752C11.2543 4.71261 10.7276 4.45177 10.1602 4.37477C9.59282 4.29777 9.01588 4.40883 8.51735 4.69101C8.01881 4.9732 7.62604 5.41103 7.39893 5.93775L7.04662 6.74325L6.19222 6.54346C5.99611 6.49482 5.79508 6.46893 5.59308 6.46629C4.8937 6.46629 4.22296 6.74472 3.72842 7.24032C3.23387 7.73593 2.95604 8.40811 2.95604 9.109C2.95604 9.8099 3.23387 10.4821 3.72842 10.9777C4.22296 11.4733 4.8937 11.7517 5.59308 11.7517H6.12049V12.8088H5.59308C5.06972 12.8133 4.55138 12.7063 4.07245 12.4947C3.59351 12.2832 3.16493 11.9721 2.81513 11.5819C2.46533 11.1918 2.2023 10.7315 2.04349 10.2317C1.88469 9.73196 1.83373 9.20405 1.89401 8.68303C1.95429 8.16202 2.12442 7.6598 2.39312 7.20969C2.66182 6.75958 3.02295 6.37187 3.45255 6.07228C3.88216 5.77268 4.37041 5.56806 4.88493 5.47196C5.39946 5.37587 5.92849 5.39051 6.43694 5.51491C6.75751 4.78024 7.30827 4.17029 8.00578 3.77744C8.7033 3.38458 9.50956 3.23024 10.3025 3.33778C11.0953 3.44532 11.8317 3.80888 12.3999 4.37341C12.9681 4.93793 13.3373 5.67265 13.4515 6.46629ZM7.90243 11.88L9.29144 13.2691V7.52339H10.342V13.2308L11.6928 11.88L12.4403 12.6275L10.1713 14.8964H9.42385L7.15496 12.6275L7.90243 11.88Z" fill="url(#paint0_linear_7154_320)"/>
<defs>
<linearGradient id="paint0_linear_7154_320" x1="16.4466" y1="3.03168" x2="5.95199" y2="17.2672" gradientUnits="userSpaceOnUse">
<stop stop-color="#658EC6"/>
<stop offset="1" stop-color="#6CDBEB"/>
</linearGradient>
</defs>
</svg>
