<svg width="264" height="189" viewBox="0 0 264 189" fill="none" xmlns="http://www.w3.org/2000/svg">
<path d="M119 123C119 134.008 115.152 144.743 107.99 153.714C100.829 162.685 90.7086 169.448 79.0355 173.062C67.3625 176.676 54.7157 176.963 42.8512 173.883C30.9867 170.803 20.4933 164.508 12.8281 155.873L38.6868 137.66C42.1051 141.51 46.7846 144.317 52.0755 145.691C57.3664 147.065 63.0062 146.937 68.2118 145.325C73.4174 143.713 77.9303 140.698 81.1241 136.697C84.3178 132.696 86.0338 127.909 86.0338 123H119Z" fill="white"/>
<path d="M20 1H97V34H38.5L20 1Z" fill="white"/>
<rect x="86" y="1" width="33" height="122" fill="white"/>
<path d="M129.565 2.61126L263.065 165.741L230.065 177.741L129.565 55.2407C129.565 34.6876 129.565 23.1643 129.565 2.61126Z" fill="white"/>
<rect x="230.065" y="1.74075" width="33" height="176" fill="white"/>
</svg>
