<svg width="704" height="186" viewBox="0 0 704 186" fill="none" xmlns="http://www.w3.org/2000/svg">
<path d="M0.000183105 0H704V25.5C704 25.5 686 25.5 686 43C686 60.5 704 60.5 704 60.5C704 60.5 704 172 704 178.5C704 185 697.5 185 697.5 185H251V168.5C251 168.5 251 162.5 245.5 162.5C240 162.5 240 168.5 240 168.5V182.5C240 182.5 240.23 183.852 239.5 184.5C238.852 185.076 237.779 185 237.779 185H7.21351C7.21351 185 0.5 185 0 178.5L0.000183105 61C0.000183105 61 19.5 61.5 19.5 43.5C19.5 25.5 0.000183105 25.5 0.000183105 25.5V0Z" fill="#44B78E"/>
<rect x="262" y="159" width="14" height="26" fill="#FFEB81"/>
<rect x="262" y="159" width="14" height="26" fill="#FFEB81"/>
<rect x="262" y="159" width="14" height="26" fill="#FFEB81"/>
<rect x="262" y="159" width="14" height="26" fill="#FFEB81"/>
<rect x="478" y="159" width="14" height="26" fill="#FFEB81"/>
<rect x="478" y="159" width="14" height="26" fill="#FFEB81"/>
<rect x="478" y="159" width="14" height="26" fill="#FFEB81"/>
<rect x="478" y="159" width="14" height="26" fill="#FFEB81"/>
<rect x="88" y="159" width="14" height="26" fill="#FFEB81"/>
<rect x="88" y="159" width="14" height="26" fill="#FFEB81"/>
<rect x="88" y="159" width="14" height="26" fill="#FFEB81"/>
<rect x="88" y="159" width="14" height="26" fill="#FFEB81"/>
<rect x="334" y="159" width="14" height="26" fill="#FFEB81"/>
<rect x="334" y="159" width="14" height="26" fill="#FFEB81"/>
<rect x="334" y="159" width="14" height="26" fill="#FFEB81"/>
<rect x="334" y="159" width="14" height="26" fill="#FFEB81"/>
<rect x="550" y="159" width="14" height="26" fill="#FFEB81"/>
<rect x="550" y="159" width="14" height="26" fill="#FFEB81"/>
<rect x="550" y="159" width="14" height="26" fill="#FFEB81"/>
<rect x="550" y="159" width="14" height="26" fill="#FFEB81"/>
<rect x="160" y="159" width="14" height="26" fill="#FFEB81"/>
<rect x="160" y="159" width="14" height="26" fill="#FFEB81"/>
<rect x="160" y="159" width="14" height="26" fill="#FFEB81"/>
<rect x="160" y="159" width="14" height="26" fill="#FFEB81"/>
<rect x="406" y="159" width="14" height="26" fill="#FFEB81"/>
<rect x="406" y="159" width="14" height="26" fill="#FFEB81"/>
<rect x="406" y="159" width="14" height="26" fill="#FFEB81"/>
<rect x="406" y="159" width="14" height="26" fill="#FFEB81"/>
<rect x="622" y="159" width="14" height="26" fill="#FFEB81"/>
<rect x="622" y="159" width="14" height="26" fill="#FFEB81"/>
<rect x="622" y="159" width="14" height="26" fill="#FFEB81"/>
<rect x="622" y="159" width="14" height="26" fill="#FFEB81"/>
<rect x="52" y="159" width="14" height="26" fill="#FFEB81"/>
<rect x="52" y="159" width="14" height="26" fill="#FFEB81"/>
<rect x="52" y="159" width="14" height="26" fill="#FFEB81"/>
<rect x="52" y="159" width="14" height="26" fill="#FFEB81"/>
<rect x="298" y="159" width="14" height="26" fill="#FFEB81"/>
<rect x="298" y="159" width="14" height="26" fill="#FFEB81"/>
<rect x="298" y="159" width="14" height="26" fill="#FFEB81"/>
<rect x="298" y="159" width="14" height="26" fill="#FFEB81"/>
<rect x="514" y="159" width="14" height="26" fill="#FFEB81"/>
<rect x="514" y="159" width="14" height="26" fill="#FFEB81"/>
<rect x="514" y="159" width="14" height="26" fill="#FFEB81"/>
<rect x="514" y="159" width="14" height="26" fill="#FFEB81"/>
<rect x="124" y="159" width="14" height="26" fill="#FFEB81"/>
<rect x="124" y="159" width="14" height="26" fill="#FFEB81"/>
<rect x="124" y="159" width="14" height="26" fill="#FFEB81"/>
<rect x="124" y="159" width="14" height="26" fill="#FFEB81"/>
<rect x="370" y="159" width="14" height="26" fill="#FFEB81"/>
<rect x="370" y="159" width="14" height="26" fill="#FFEB81"/>
<rect x="370" y="159" width="14" height="26" fill="#FFEB81"/>
<rect x="370" y="159" width="14" height="26" fill="#FFEB81"/>
<rect x="586" y="159" width="14" height="26" fill="#FFEB81"/>
<rect x="586" y="159" width="14" height="26" fill="#FFEB81"/>
<rect x="586" y="159" width="14" height="26" fill="#FFEB81"/>
<rect x="586" y="159" width="14" height="26" fill="#FFEB81"/>
<rect x="196" y="159" width="14" height="26" fill="#FFEB81"/>
<rect x="196" y="159" width="14" height="26" fill="#FFEB81"/>
<rect x="196" y="159" width="14" height="26" fill="#FFEB81"/>
<rect x="196" y="159" width="14" height="26" fill="#FFEB81"/>
<rect x="442" y="159" width="14" height="26" fill="#FFEB81"/>
<rect x="442" y="159" width="14" height="26" fill="#FFEB81"/>
<rect x="442" y="159" width="14" height="26" fill="#FFEB81"/>
<rect x="442" y="159" width="14" height="26" fill="#FFEB81"/>
<rect x="658" y="159" width="14" height="26" fill="#FFEB81"/>
<rect x="658" y="159" width="14" height="26" fill="#FFEB81"/>
<rect x="658" y="159" width="14" height="26" fill="#FFEB81"/>
<rect x="658" y="159" width="14" height="26" fill="#FFEB81"/>
<rect x="34" y="159" width="14" height="26" fill="#FFEB81"/>
<rect x="34" y="159" width="14" height="26" fill="#FFEB81"/>
<rect x="34" y="159" width="14" height="26" fill="#FFEB81"/>
<rect x="34" y="159" width="14" height="26" fill="#FFEB81"/>
<rect x="16" y="159" width="14" height="26" fill="#FFEB81"/>
<rect x="16" y="159" width="14" height="26" fill="#FFEB81"/>
<rect x="16" y="159" width="14" height="26" fill="#FFEB81"/>
<rect x="16" y="159" width="14" height="26" fill="#FFEB81"/>
<rect x="280" y="159" width="14" height="26" fill="#FFEB81"/>
<rect x="280" y="159" width="14" height="26" fill="#FFEB81"/>
<rect x="280" y="159" width="14" height="26" fill="#FFEB81"/>
<rect x="280" y="159" width="14" height="26" fill="#FFEB81"/>
<rect x="496" y="159" width="14" height="26" fill="#FFEB81"/>
<rect x="496" y="159" width="14" height="26" fill="#FFEB81"/>
<rect x="496" y="159" width="14" height="26" fill="#FFEB81"/>
<rect x="496" y="159" width="14" height="26" fill="#FFEB81"/>
<rect x="106" y="159" width="14" height="26" fill="#FFEB81"/>
<rect x="106" y="159" width="14" height="26" fill="#FFEB81"/>
<rect x="106" y="159" width="14" height="26" fill="#FFEB81"/>
<rect x="106" y="159" width="14" height="26" fill="#FFEB81"/>
<rect x="352" y="159" width="14" height="26" fill="#FFEB81"/>
<rect x="352" y="159" width="14" height="26" fill="#FFEB81"/>
<rect x="352" y="159" width="14" height="26" fill="#FFEB81"/>
<rect x="352" y="159" width="14" height="26" fill="#FFEB81"/>
<rect x="568" y="159" width="14" height="26" fill="#FFEB81"/>
<rect x="568" y="159" width="14" height="26" fill="#FFEB81"/>
<rect x="568" y="159" width="14" height="26" fill="#FFEB81"/>
<rect x="568" y="159" width="14" height="26" fill="#FFEB81"/>
<rect x="178" y="159" width="14" height="26" fill="#FFEB81"/>
<rect x="178" y="159" width="14" height="26" fill="#FFEB81"/>
<rect x="178" y="159" width="14" height="26" fill="#FFEB81"/>
<rect x="178" y="159" width="14" height="26" fill="#FFEB81"/>
<rect x="424" y="159" width="14" height="26" fill="#FFEB81"/>
<rect x="424" y="159" width="14" height="26" fill="#FFEB81"/>
<rect x="424" y="159" width="14" height="26" fill="#FFEB81"/>
<rect x="424" y="159" width="14" height="26" fill="#FFEB81"/>
<rect x="640" y="159" width="14" height="26" fill="#FFEB81"/>
<rect x="640" y="159" width="14" height="26" fill="#FFEB81"/>
<rect x="640" y="159" width="14" height="26" fill="#FFEB81"/>
<rect x="640" y="159" width="14" height="26" fill="#FFEB81"/>
<rect x="70" y="159" width="14" height="26" fill="#FFEB81"/>
<rect x="70" y="159" width="14" height="26" fill="#FFEB81"/>
<rect x="70" y="159" width="14" height="26" fill="#FFEB81"/>
<rect x="70" y="159" width="14" height="26" fill="#FFEB81"/>
<rect x="316" y="159" width="14" height="26" fill="#FFEB81"/>
<rect x="316" y="159" width="14" height="26" fill="#FFEB81"/>
<rect x="316" y="159" width="14" height="26" fill="#FFEB81"/>
<rect x="316" y="159" width="14" height="26" fill="#FFEB81"/>
<rect x="532" y="159" width="14" height="26" fill="#FFEB81"/>
<rect x="532" y="159" width="14" height="26" fill="#FFEB81"/>
<rect x="532" y="159" width="14" height="26" fill="#FFEB81"/>
<rect x="532" y="159" width="14" height="26" fill="#FFEB81"/>
<rect x="142" y="159" width="14" height="26" fill="#FFEB81"/>
<rect x="142" y="159" width="14" height="26" fill="#FFEB81"/>
<rect x="142" y="159" width="14" height="26" fill="#FFEB81"/>
<rect x="142" y="159" width="14" height="26" fill="#FFEB81"/>
<rect x="388" y="159" width="14" height="26" fill="#FFEB81"/>
<rect x="388" y="159" width="14" height="26" fill="#FFEB81"/>
<rect x="388" y="159" width="14" height="26" fill="#FFEB81"/>
<rect x="388" y="159" width="14" height="26" fill="#FFEB81"/>
<rect x="604" y="159" width="14" height="26" fill="#FFEB81"/>
<rect x="604" y="159" width="14" height="26" fill="#FFEB81"/>
<rect x="604" y="159" width="14" height="26" fill="#FFEB81"/>
<rect x="604" y="159" width="14" height="26" fill="#FFEB81"/>
<rect x="214" y="159" width="14" height="26" fill="#FFEB81"/>
<rect x="214" y="159" width="14" height="26" fill="#FFEB81"/>
<rect x="214" y="159" width="14" height="26" fill="#FFEB81"/>
<rect x="214" y="159" width="14" height="26" fill="#FFEB81"/>
<rect x="460" y="159" width="14" height="26" fill="#FFEB81"/>
<rect x="460" y="159" width="14" height="26" fill="#FFEB81"/>
<rect x="460" y="159" width="14" height="26" fill="#FFEB81"/>
<rect x="460" y="159" width="14" height="26" fill="#FFEB81"/>
<rect x="676" y="159" width="14" height="26" fill="#FFEB81"/>
<rect x="676" y="159" width="14" height="26" fill="#FFEB81"/>
<rect x="676" y="159" width="14" height="26" fill="#FFEB81"/>
<rect x="676" y="159" width="14" height="26" fill="#FFEB81"/>
<rect x="31" y="62" width="17" height="8" rx="4" fill="#D9D9D9"/>
<rect x="31" y="96" width="17" height="8" rx="4" fill="#D9D9D9"/>
<rect x="31" y="79" width="17" height="8" rx="4" fill="#D9D9D9"/>
<rect x="31" y="113" width="17" height="8" rx="4" fill="#D9D9D9"/>
<rect x="84" y="62" width="17" height="8" rx="4" fill="#D9D9D9"/>
<rect x="84" y="96" width="17" height="8" rx="4" fill="#D9D9D9"/>
<rect x="84" y="79" width="17" height="8" rx="4" fill="#D9D9D9"/>
<rect x="84" y="113" width="17" height="8" rx="4" fill="#D9D9D9"/>
<rect x="41" y="55" width="50" height="72" rx="2" fill="#5F5F5F"/>
<rect x="121" y="62" width="17" height="8" rx="4" fill="#D9D9D9"/>
<rect x="121" y="96" width="17" height="8" rx="4" fill="#D9D9D9"/>
<rect x="121" y="79" width="17" height="8" rx="4" fill="#D9D9D9"/>
<rect x="121" y="113" width="17" height="8" rx="4" fill="#D9D9D9"/>
<rect x="174" y="62" width="17" height="8" rx="4" fill="#D9D9D9"/>
<rect x="174" y="96" width="17" height="8" rx="4" fill="#D9D9D9"/>
<rect x="174" y="79" width="17" height="8" rx="4" fill="#D9D9D9"/>
<rect x="174" y="113" width="17" height="8" rx="4" fill="#D9D9D9"/>
<rect x="131" y="55" width="50" height="72" rx="2" fill="#5F5F5F"/>
<rect x="253" y="62" width="17" height="8" rx="4" fill="#D9D9D9"/>
<rect x="253" y="96" width="17" height="8" rx="4" fill="#D9D9D9"/>
<rect x="253" y="79" width="17" height="8" rx="4" fill="#D9D9D9"/>
<rect x="253" y="113" width="17" height="8" rx="4" fill="#D9D9D9"/>
<rect x="306" y="62" width="17" height="8" rx="4" fill="#D9D9D9"/>
<rect x="306" y="96" width="17" height="8" rx="4" fill="#D9D9D9"/>
<rect x="306" y="79" width="17" height="8" rx="4" fill="#D9D9D9"/>
<rect x="306" y="113" width="17" height="8" rx="4" fill="#D9D9D9"/>
<rect x="263" y="55" width="50" height="72" rx="2" fill="#5F5F5F"/>
<rect x="343" y="62" width="17" height="8" rx="4" fill="#D9D9D9"/>
<rect x="343" y="96" width="17" height="8" rx="4" fill="#D9D9D9"/>
<rect x="343" y="79" width="17" height="8" rx="4" fill="#D9D9D9"/>
<rect x="343" y="113" width="17" height="8" rx="4" fill="#D9D9D9"/>
<rect x="396" y="62" width="17" height="8" rx="4" fill="#D9D9D9"/>
<rect x="396" y="96" width="17" height="8" rx="4" fill="#D9D9D9"/>
<rect x="396" y="79" width="17" height="8" rx="4" fill="#D9D9D9"/>
<rect x="396" y="113" width="17" height="8" rx="4" fill="#D9D9D9"/>
<rect x="353" y="55" width="50" height="72" rx="2" fill="#5F5F5F"/>
<rect x="433" y="62" width="17" height="8" rx="4" fill="#D9D9D9"/>
<rect x="433" y="96" width="17" height="8" rx="4" fill="#D9D9D9"/>
<rect x="433" y="79" width="17" height="8" rx="4" fill="#D9D9D9"/>
<rect x="433" y="113" width="17" height="8" rx="4" fill="#D9D9D9"/>
<rect x="486" y="62" width="17" height="8" rx="4" fill="#D9D9D9"/>
<rect x="486" y="96" width="17" height="8" rx="4" fill="#D9D9D9"/>
<rect x="486" y="79" width="17" height="8" rx="4" fill="#D9D9D9"/>
<rect x="486" y="113" width="17" height="8" rx="4" fill="#D9D9D9"/>
<rect x="443" y="55" width="50" height="72" rx="2" fill="#5F5F5F"/>
<rect x="523" y="62" width="17" height="8" rx="4" fill="#D9D9D9"/>
<rect x="523" y="96" width="17" height="8" rx="4" fill="#D9D9D9"/>
<rect x="523" y="79" width="17" height="8" rx="4" fill="#D9D9D9"/>
<rect x="523" y="113" width="17" height="8" rx="4" fill="#D9D9D9"/>
<rect x="576" y="62" width="17" height="8" rx="4" fill="#D9D9D9"/>
<rect x="576" y="96" width="17" height="8" rx="4" fill="#D9D9D9"/>
<rect x="576" y="79" width="17" height="8" rx="4" fill="#D9D9D9"/>
<rect x="576" y="113" width="17" height="8" rx="4" fill="#D9D9D9"/>
<rect x="533" y="55" width="50" height="72" rx="2" fill="#5F5F5F"/>
<rect x="611" y="62" width="17" height="8" rx="4" fill="#D9D9D9"/>
<rect x="611" y="96" width="17" height="8" rx="4" fill="#D9D9D9"/>
<rect x="611" y="79" width="17" height="8" rx="4" fill="#D9D9D9"/>
<rect x="611" y="113" width="17" height="8" rx="4" fill="#D9D9D9"/>
<rect x="664" y="62" width="17" height="8" rx="4" fill="#D9D9D9"/>
<rect x="664" y="96" width="17" height="8" rx="4" fill="#D9D9D9"/>
<rect x="664" y="79" width="17" height="8" rx="4" fill="#D9D9D9"/>
<rect x="664" y="113" width="17" height="8" rx="4" fill="#D9D9D9"/>
<rect x="621" y="55" width="50" height="72" rx="2" fill="#5F5F5F"/>
</svg>
